<svg xmlns="http://www.w3.org/2000/svg" width="960" height="600" viewBox="0 0 960 600" role="img">
  <rect width="960" height="600" fill="#0c120c"/>
  <rect x="40" y="36" width="880" height="44" rx="8" fill="#161c16"/>
  <circle cx="64" cy="58" r="6" fill="#ff5a5a"/><circle cx="86" cy="58" r="6" fill="#ffb020"/><circle cx="108" cy="58" r="6" fill="#33ff66"/>
  <rect x="140" y="48" width="420" height="16" rx="4" fill="#1e2a1e"/>
  <rect x="40" y="100" width="200" height="460" rx="8" fill="#121812"/>
  <rect x="60" y="130" width="160" height="14" rx="3" fill="#33ff6644"/>
  <rect x="60" y="160" width="140" height="10" rx="3" fill="#ffffff22"/>
  <rect x="60" y="186" width="150" height="10" rx="3" fill="#ffffff18"/>
  <rect x="60" y="212" width="120" height="10" rx="3" fill="#ffffff18"/>
  <rect x="260" y="100" width="660" height="100" rx="8" fill="#121812"/>
  <rect x="280" y="124" width="280" height="18" rx="4" fill="#33ff6633"/>
  <rect x="280" y="156" width="480" height="12" rx="3" fill="#ffffff20"/>
  <rect x="260" y="220" width="210" height="140" rx="8" fill="#141a14"/><rect x="280" y="240" width="120" height="12" rx="3" fill="#33ff6640"/><rect x="280" y="270" width="170" height="60" rx="4" fill="#ffffff12"/>
  <rect x="485" y="220" width="210" height="140" rx="8" fill="#141a14"/><rect x="505" y="240" width="120" height="12" rx="3" fill="#33ff6640"/><rect x="505" y="270" width="170" height="60" rx="4" fill="#ffffff12"/>
  <rect x="710" y="220" width="210" height="140" rx="8" fill="#141a14"/><rect x="730" y="240" width="120" height="12" rx="3" fill="#33ff6640"/><rect x="730" y="270" width="170" height="60" rx="4" fill="#ffffff12"/>
  <rect x="260" y="380" width="660" height="180" rx="8" fill="#121812"/>
  <rect x="280" y="410" width="620" height="14" rx="3" fill="#ffffff18"/>
  <rect x="280" y="440" width="560" height="14" rx="3" fill="#ffffff14"/>
  <rect x="280" y="470" width="500" height="14" rx="3" fill="#ffffff10"/>
  <text x="280" y="530" fill="#33ff6699" font-family="ui-monospace,monospace" font-size="14">firstdata · web product shell</text>
</svg>
